<svg xmlns="http://www.w3.org/2000/svg" style="display: none;">
  <symbol id="email" viewBox="0 0 24 24">
    <path fill-rule="evenodd" d="M3 4a2 2 0 0 1 2-2h14a2 2 0 0 1 2 2v16a2 2 0 0 1-2 2H5a2 2 0 0 1-2-2V4Zm2-1a1 1 0 0 0-1 1v.217l9.42 6.28a1 1 0 0 0 1.16 0L20 5.217V4a1 1 0 0 0-1-1H5Zm15 2.385-7.42 4.947a3 3 0 0 1-3.48 0L5 6.385V20a1 1 0 0 0 1 1h14a1 1 0 0 0 1-1V6.385Z" clip-rule="evenodd"/>
  </symbol>
  <symbol id="password" viewBox="0 0 24 24">
    <path fill-rule="evenodd" d="M8 10a4 4 0 1 1 8 0v2h1a2 2 0 0 1 2 2v5a2 2 0 0 1-2 2H7a2 2 0 0 1-2-2v-5a2 2 0 0 1 2-2h1v-2Zm4-3a3 3 0 0 0-3 3v2h6v-2a3 3 0 0 0-3-3Zm-4 8a1 1 0 0 1 1-1h8a1 1 0 0 1 1 1v5a1 1 0 0 1-1 1H7a1 1 0 0 1-1-1v-5Z" clip-rule="evenodd"/>
  </symbol>
  <symbol id="apple" viewBox="0 0 24 24">
    <path d="M17.252 10.992c-.04-2.404 1.847-3.67 1.94-3.723a.12.12 0 0 0-.097-.217c-1.09-.23-2.735-.1-3.93.853-1.31 1.043-2.15 2.583-2.15 4.112 0 1.61 1.01 3.25 2.18 4.22.68.57 1.48.92 2.45.92.2 0 .4-.02.6-.06.4-.1.8-.3 1.1-.6.1-.1.2-.2.2-.3l-.01-.01c-.01-.02-.02-.03-.02-.05a.12.12 0 0 0-.17-.07c-.4.25-1.1.6-2.07.6-1.2 0-2.26-.7-3.1-1.5-1.07-1-1.77-2.5-1.77-4.05 0-1.5.7-3.05 1.74-4.02 1.18-1.12 2.7-1.57 4.05-1.57.85 0 1.7.25 2.5.7a.12.12 0 0 0 .15-.123c-.05-.08-1.18-1.8-3.1-1.8Z"/><path d="M15.5 2.25a2.25 2.25 0 0 0-2.25 2.25c0 .3.05.6.15.85a.12.12 0 0 0 .15.05.12.12 0 0 0 .05-.15A1.99 1.99 0 0 1 13.5 4.5a2.002 2.002 0 0 1 2-2 2.002 2.002 0 0 1 2 2c0 .8-.5 1.5-1.2 1.8a.12.12 0 0 0-.05.15c.05.1.15.1.2.05.8-.35 1.45-1.2 1.45-2.25a2.25 2.25 0 0 0-2.25-2.25Z"/>
  </symbol>
  <symbol id="google" viewBox="0 0 24 24">
    <path d="M21.54 10.45h-9.04v3.6h5.21a4.4 4.4 0 0 1-1.89 2.87v2.33h3c1.75-1.6 2.75-4 2.75-6.8a8.3 8.3 0 0 0-.03-1Z"/><path d="M12.5 21.5a8.2 8.2 0 0 0 5.7-2.1l-3-2.33a5.2 5.2 0 0 1-2.7.73 5.1 5.1 0 0 1-4.8-3.5H2.8v2.4A9 9 0 0 0 12.5 21.5Z"/><path d="M7.7 14.23a5 5 0 0 1 0-4.46V7.37H2.8a9 9 0 0 0 0 9.26l4.9-3.4Z"/><path d="M12.5 7.73a4.7 4.7 0 0 1 3.3 1.3l2.6-2.6A8.7 8.7 0 0 0 12.5 2.5a9 9 0 0 0-8.1 5.1l4.9 3.4a5.1 5.1 0 0 1 3.2-3.3Z"/>
  </symbol>
  <symbol id="x" viewBox="0 0 24 24">
    <path d="m18.25 3.75-7.5 7.5-7.5-7.5H1.5v.75L8.25 12l-6.75 7.5v.75h1.75l7.5-7.5 7.5 7.5h1.75v-.75L15.75 12l6.75-7.5V3.75Z"/>
  </symbol>
  <symbol id="plus" viewBox="0 0 24 24">
    <path d="M12 4a1 1 0 0 1 1 1v6h6a1 1 0 1 1 0 2h-6v6a1 1 0 1 1-2 0v-6H5a1 1 0 1 1 0-2h6V5a1 1 0 0 1 1-1z"/>
  </symbol>
  <symbol id="notification" viewBox="0 0 24 24">
    <path fill-rule="evenodd" d="M12 2a3 3 0 0 0-3 3v.528A6.97 6.97 0 0 0 6 11.5v3.633L4.327 17.4a1.5 1.5 0 0 0 1.252 2.1h12.842a1.5 1.5 0 0 0 1.252-2.1L18 15.133V11.5a6.97 6.97 0 0 0-3-5.972V5a3 3 0 0 0-3-3ZM9.5 21a2.5 2.5 0 1 0 5 0h-5Z" clip-rule="evenodd"/>
  </symbol>
  <symbol id="logout" viewBox="0 0 24 24">
    <path fill-rule="evenodd" d="M15 4.001a1 1 0 0 1 1-1h3a2 2 0 0 1 2 2v14a2 2 0 0 1-2 2h-3a1 1 0 1 1 0-2h3V5h-3a1 1 0 0 1-1-1Zm-3.293 5.292a1 1 0 0 0-1.414 1.414L11.586 12l-1.293 1.293a1 1 0 1 0 1.414 1.414l2-2a1 1 0 0 0 0-1.414l-2-2Z" clip-rule="evenodd"/><path d="M3 12a1 1 0 0 1 1-1h7a1 1 0 1 1 0 2H4a1 1 0 0 1-1-1Z"/>
  </symbol>
  <symbol id="delete" viewBox="0 0 24 24">
    <path fill-rule="evenodd" d="M17 6H7V5a2 2 0 0 1 2-2h6a2 2 0 0 1 2 2v1Zm2 0h-2v-.5A3.5 3.5 0 0 0 13.5 1h-3A3.5 3.5 0 0 0 7 5.5V6H5a1 1 0 1 0 0 2h14a1 1 0 1 0 0-2Zm-2 3H7v11a2 2 0 0 0 2 2h6a2 2 0 0 0 2-2V9Zm-9 2a1 1 0 0 1 1-1h2a1 1 0 1 1 0 2h-2a1 1 0 0 1-1-1Zm5 0a1 1 0 0 1 1-1h2a1 1 0 1 1 0 2h-2a1 1 0 0 1-1-1Z" clip-rule="evenodd"/>
  </symbol>
  <symbol id="survey-icon" viewBox="0 0 24 24">
    <path fill-rule="evenodd" d="M5 3a3 3 0 0 0-3 3v12a3 3 0 0 0 3 3h14a3 3 0 0 0 3-3V6a3 3 0 0 0-3-3H5Zm0 2a1 1 0 0 0-1 1v12a1 1 0 0 0 1 1h14a1 1 0 0 0 1-1V6a1 1 0 0 0-1-1H5Zm2 5a1 1 0 0 1 1-1h8a1 1 0 1 1 0 2H8a1 1 0 0 1-1-1Zm0 4a1 1 0 0 1 1-1h4a1 1 0 1 1 0 2H8a1 1 0 0 1-1-1Z" clip-rule="evenodd"/>
  </symbol>
  <symbol id="check-circle" viewBox="0 0 24 24">
    <path fill-rule="evenodd" d="M2 12C2 6.477 6.477 2 12 2s10 4.477 10 10-4.477 10-10 10S2 17.523 2 12Zm13.707-1.293a1 1 0 0 0-1.414-1.414L11 12.586l-1.793-1.793a1 1 0 0 0-1.414 1.414l2.5 2.5a1 1 0 0 0 1.414 0l4-4Z" clip-rule="evenodd"/>
  </symbol>
  <symbol id="chevron-down" viewBox="0 0 24 24">
    <path fill-rule="evenodd" d="M12 16a1 1 0 0 1-.707-.293l-4-4a1 1 0 1 1 1.414-1.414L12 13.586l3.293-3.293a1 1 0 1 1 1.414 1.414l-4 4A1 1 0 0 1 12 16Z" clip-rule="evenodd"/>
  </symbol>
  <symbol id="list" viewBox="0 0 24 24">
    <path fill-rule="evenodd" d="M3 5a1 1 0 0 1 1-1h16a1 1 0 1 1 0 2H4a1 1 0 0 1-1-1Zm0 6a1 1 0 0 1 1-1h16a1 1 0 1 1 0 2H4a1 1 0 0 1-1-1Zm1 5a1 1 0 1 0 0 2h16a1 1 0 1 0 0-2H4Z" clip-rule="evenodd"/>
  </symbol>
  <symbol id="checkbox" viewBox="0 0 24 24">
    <path fill-rule="evenodd" d="M3 5a2 2 0 0 1 2-2h14a2 2 0 0 1 2 2v14a2 2 0 0 1-2 2H5a2 2 0 0 1-2-2V5Zm2-1a1 1 0 0 0-1 1v14a1 1 0 0 0 1 1h14a1 1 0 0 0 1-1V5a1 1 0 0 0-1-1H5Zm7.707 5.707a1 1 0 0 0-1.414-1.414L9 11.586l-1.793-1.793a1 1 0 0 0-1.414 1.414l2.5 2.5a1 1 0 0 0 1.414 0l4-4Z" clip-rule="evenodd"/>
  </symbol>
  <symbol id="dropdown" viewBox="0 0 24 24">
    <path fill-rule="evenodd" d="M3 5a2 2 0 0 1 2-2h14a2 2 0 0 1 2 2v14a2 2 0 0 1-2 2H5a2 2 0 0 1-2-2V5Zm2-1a1 1 0 0 0-1 1v14a1 1 0 0 0 1 1h14a1 1 0 0 0 1-1V5a1 1 0 0 0-1-1H5Zm12 5a1 1 0 0 1 .707 1.707l-4 4a1 1 0 0 1-1.414 0l-4-4A1 1 0 1 1 8 9.293L12 13.586l3.293-3.293A1 1 0 0 1 17 10Z" clip-rule="evenodd"/>
  </symbol>
  <symbol id="text" viewBox="0 0 24 24">
    <path fill-rule="evenodd" d="M3 5a2 2 0 0 1 2-2h14a2 2 0 0 1 2 2v14a2 2 0 0 1-2 2H5a2 2 0 0 1-2-2V5Zm2-1a1 1 0 0 0-1 1v14a1 1 0 0 0 1 1h14a1 1 0 0 0 1-1V5a1 1 0 0 0-1-1H5Zm2 5a1 1 0 0 1 1-1h8a1 1 0 1 1 0 2H8a1 1 0 0 1-1-1Zm0 4a1 1 0 0 1 1-1h4a1 1 0 1 1 0 2H8a1 1 0 0 1-1-1Z" clip-rule="evenodd"/>
  </symbol>
  <symbol id="star" viewBox="0 0 24 24">
    <path fill-rule="evenodd" d="M12 2.25a1 1 0 0 1 .809.416l3.14 4.887 5.378.78a1 1 0 0 1 .555 1.705l-3.89 3.791.919 5.353a1 1 0 0 1-1.451 1.054L12 18.067l-4.8 2.525a1 1 0 0 1-1.45-1.054l.919-5.353-3.89-3.791a1 1 0 0 1 .555-1.705l5.378-.78 3.14-4.887A1 1 0 0 1 12 2.25Z" clip-rule="evenodd"/>
  </symbol>
  <symbol id="scale" viewBox="0 0 24 24">
    <path fill-rule="evenodd" d="M12 2a1 1 0 0 1 1 1v6a1 1 0 1 1-2 0V3a1 1 0 0 1 1-1Zm-5 5a1 1 0 0 1 1 1v12a1 1 0 1 1-2 0V8a1 1 0 0 1 1-1Zm10 0a1 1 0 0 1 1 1v12a1 1 0 1 1-2 0V8a1 1 0 0 1 1-1Z" clip-rule="evenodd"/>
  </symbol>
  <symbol id="date" viewBox="0 0 24 24">
    <path fill-rule="evenodd" d="M3 5a2 2 0 0 1 2-2h14a2 2 0 0 1 2 2v14a2 2 0 0 1-2 2H5a2 2 0 0 1-2-2V5Zm2-1a1 1 0 0 0-1 1v14a1 1 0 0 0 1 1h14a1 1 0 0 0 1-1V5a1 1 0 0 0-1-1H5Zm10 0a1 1 0 1 0 0 2h2a1 1 0 1 0 0-2h-2Zm-7 0a1 1 0 1 0 0 2h2a1 1 0 1 0 0-2H8Zm-3 5a1 1 0 0 0 0 2h14a1 1 0 1 0 0-2H5Z" clip-rule="evenodd"/>
  </symbol>
  <symbol id="time" viewBox="0 0 24 24">
    <path fill-rule="evenodd" d="M2 12C2 6.477 6.477 2 12 2s10 4.477 10 10-4.477 10-10 10S2 17.523 2 12Zm10-8a8 8 0 1 0 0 16 8 8 0 0 0 0-16Zm-.5 3.5a.5.5 0 0 1 1 0v4.293l2.646 2.647a.5.5 0 0 1-.708.707l-3-3a.5.5 0 0 1 .207-.853V7.5Z" clip-rule="evenodd"/>
  </symbol>
  <symbol id="upload" viewBox="0 0 24 24">
    <path fill-rule="evenodd" d="M12 2a1 1 0 0 1 1 1v8.586l3.293-3.293a1 1 0 1 1 1.414 1.414l-5 5a1 1 0 0 1-1.414 0l-5-5a1 1 0 0 1 1.414-1.414L11 11.586V3a1 1 0 0 1 1-1Zm-7 15a1 1 0 0 1 1 1v2h12v-2a1 1 0 1 1 0 2H6a1 1 0 0 1-1-1v-2Z" clip-rule="evenodd"/>
  </symbol>
  <symbol id="share-3dots" viewBox="0 0 24 24">
    <path fill-rule="evenodd" d="M18 5.25a2.25 2.25 0 1 1-2.122 3.0l-6.13 3.192a2.25 2.25 0 0 1 0 1.116l6.13 3.192a2.25 2.25 0 1 1-.623 1.166l-6.13-3.192A2.25 2.25 0 1 1 6 10.5c.29 0 .568.056.823.161l6.13-3.192A2.25 2.25 0 0 1 18 5.25Z" clip-rule="evenodd"/>
  </symbol>
  <symbol id="arrow-left" viewBox="0 0 24 24">
    <path fill-rule="evenodd" d="M13.78 4.72a.75.75 0 0 1 0 1.06L8.56 11h10.69a.75.75 0 0 1 0 1.5H8.56l5.22 5.22a.75.75 0 1 1-1.06 1.06l-6.5-6.5a.75.75 0 0 1 0-1.06l6.5-6.5a.75.75 0 0 1 1.06 0Z" clip-rule="evenodd"/>
  </symbol>
</svg>
